<svg xmlns="http://www.w3.org/2000/svg" fill="none" viewBox="0 0 33 12"><path fill="#fff" d="M0 0h33v12H0z"/><path fill="#000091" d="M10.656 10.55c.004 0 .008-.006.008-.006a.486.486 0 0 0 .092-.088c-.004 0-.008 0-.012-.006a1.541 1.541 0 0 0-.088.1Zm4.413-1.487-.07.06c.04-.01.07-.02.07-.06Z"/><path fill="#000091" fill-rule="evenodd" d="M13.643 10.582c.127-.128.255-.265.383-.405h-.004c.24-.273.473-.534.752-.771a2.486 2.486 0 0 1 .244-.2c.011-.01.017-.028.023-.044.005-.018.011-.035.023-.045-.055.021-.099.055-.143.088a.582.582 0 0 1-.151.091c-.023 0-.047-.023-.023-.046a5.624 5.624 0 0 0 .24-.183h-.016c-.023 0-.023-.024-.023-.047-.288-.046-.51.151-.708.328l-.012.01c-.031.016-.06 0-.083-.011a.08.08 0 0 0-.03-.011c-.175.058-.326.167-.479.276-.14.1-.281.202-.443.265V9.83c-.055.02-.109.044-.163.069-.08.036-.16.073-.243.091-.152.035-.293.03-.429.026a3.98 3.98 0 0 0-.133-.003 6.535 6.535 0 0 0-.738.131l-.08.017a.049.049 0 0 1-.011.004l-.012.004a1.69 1.69 0 0 0-.418.172l-.015.008-.016.019a.214.214 0 0 0-.015.02.524.524 0 0 1-.155.136 1.26 1.26 0 0 0-.264.198 2.786 2.786 0 0 1-.108.094c-.008.008-.023.012-.035.012-.12.117-.24.234-.364.346-.008.008-.043.012-.07.008 0 0 .004 0 .004-.004l.012-.023.058-.094a1.424 1.424 0 0 0 .033-.052l.032-.053c.031-.046.063-.093.097-.136.008-.012.008-.023 0-.031a.044.044 0 0 0-.03-.012 2.1 2.1 0 0 1 .379-.284v-.004c-.016.004-.039-.008-.027-.024.011-.014.02-.03.03-.046l.009-.016.003-.01.004-.01-.007-.01a.037.037 0 0 1-.008-.009l-.024.015a.72.72 0 0 0-.08.06.403.403 0 0 0-.05.055c-.036.045-.073.092-.129.092-.004 0-.023 0-.035-.004-.011 0-.02-.004-.023-.008v-.003h.004s.004-.004.004-.008c0 0 0-.004.004-.004a.113.113 0 0 1 .005-.01.083.083 0 0 0 .006-.01.072.072 0 0 1 .006-.01.1.1 0 0 0 .006-.01.02.02 0 0 0 .004-.007c0-.003.002-.006.004-.008l.004-.008.011-.023.006-.01a.078.078 0 0 0 .006-.01.215.215 0 0 0 .015-.025l.016-.025a.083.083 0 0 1 .015-.023l.012-.022c.004-.007.008-.013.011-.021.012-.02 0-.035-.015-.04a.524.524 0 0 1 .155-.136h-.008a2.2 2.2 0 0 0 .163-.09 5.455 5.455 0 0 1 .097-.054.151.151 0 0 1 .038-.03 1.393 1.393 0 0 0-.356.178s-.031.012-.039.02c0 0-.023.008-.054-.02-.004-.004-.004-.007-.004-.015.014-.027.041-.045.071-.065a.38.38 0 0 0 .065-.048c.023 0 .042 0 .042.023.446-.35.997-.43 1.548-.512.34-.05.68-.1.997-.212a3.615 3.615 0 0 1 .1-.069 3.55 3.55 0 0 0 .102-.068c.056-.023.107-.064.16-.106a.962.962 0 0 1 .177-.12c.178-.136.313-.292.383-.522 0-.023-.023-.047-.023-.047a3.563 3.563 0 0 1-.992.748c-.343.182-.711.209-1.076.235-.137.01-.273.02-.407.038.023-.047.07-.047.112-.047 0-.055.027-.079.06-.11a.232.232 0 0 0 .03-.026h.065c.012 0 .017-.012.023-.023s.012-.024.023-.024c.047 0 .113-.023.09-.023-.036-.046-.088-.028-.145-.008-.054.02-.114.04-.17.008.021-.023.027-.05.033-.074.006-.027.011-.05.034-.062h.089c0-.047.046-.09.046-.09.202-.122.397-.228.589-.332.128-.07.254-.138.38-.21-.026 0-.048.01-.07.02-.035.017-.068.032-.109.004.024 0 .024-.017.024-.033 0-.017 0-.033.023-.033.145-.04.274-.102.407-.166.093-.046.187-.092.29-.13a.306.306 0 0 0-.086.015c-.053.016-.103.03-.162-.016a.165.165 0 0 0 .04-.027c.025-.02.05-.039.096-.039v-.066c0-.023.023-.023.046-.023-.023 0-.046-.024-.046-.024.012-.024.036-.03.063-.035a.14.14 0 0 0 .072-.031c-.023 0-.066 0-.066-.023.066-.09.179-.113.291-.137-.012-.023-.034-.023-.053-.023-.02 0-.036 0-.036-.023s.023-.024.046-.024h-.046c-.036-.018-.03-.05-.026-.074l.003-.015c.09-.108.12-.234.15-.36a1.81 1.81 0 0 1 .051-.182c-.023 0-.046 0-.046-.023-.218.241-.563.333-.891.42l-.031.008h-.113a.444.444 0 0 1-.383-.023.604.604 0 0 1-.133-.101 1.133 1.133 0 0 0-.092-.078 2.778 2.778 0 0 0-.561-.273 5.043 5.043 0 0 0-1.732-.25c.163-.09.337-.125.513-.161a3.44 3.44 0 0 0 .273-.064 15.209 15.209 0 0 0 .172-.052c.32-.099.633-.194.975-.174-.045-.016-.102-.01-.155-.005-.025.002-.049.005-.07.005-.259-.02-.52.038-.793.098a15.229 15.229 0 0 1-.175.038 3.23 3.23 0 0 0-.31.086c-.112.035-.225.07-.345.093-.052.018-.093.049-.134.078-.065.048-.128.094-.226.082v-.07c.225-.273.496-.542.856-.565.348-.057.677-.016 1.02.026l.173.02c.281.023.544.086.827.153l.03.007c.061 0 .096.055.13.108.027.043.054.084.094.095.055.019.11.023.165.026.08.005.161.01.242.064a.272.272 0 0 0-.006-.047c-.005-.03-.01-.059.006-.09.05-.05.107-.037.163-.023.044.01.088.02.127 0 .123-.076.008-.193-.108-.31a.988.988 0 0 1-.14-.166c0-.023.024-.046.024-.046.05.045.098.093.145.14.117.116.232.23.393.312.112.046.383.113.337-.024-.08-.176-.216-.33-.353-.484a5.375 5.375 0 0 1-.166-.194v-.09c-.035 0-.044-.013-.054-.03a.138.138 0 0 0-.012-.016v-.09c-.057-.03-.07-.077-.082-.124-.008-.027-.015-.054-.03-.078-.04-.063-.042-.14-.045-.22a.657.657 0 0 0-.025-.19 2.311 2.311 0 0 1-.09-.385 15.664 15.664 0 0 0-.08-.403c-.047-.231-.093-.453-.12-.684-.036-.33.13-.61.301-.896.05-.085.102-.17.148-.257.159-.273.337-.542.631-.725.064-.266.24-.487.413-.708l.013-.017c.172-.214.459-.344.67-.44L14.96.23c.313-.14.596-.23.6-.23H0v11.997h11.04c.295-.214.588-.35.938-.51a17.12 17.12 0 0 0 .658-.315c.315-.155.817-.403 1.007-.59ZM10.14 8.964c-.044.004-.09.009-.073-.026.016-.08.097-.103.176-.126a.587.587 0 0 0 .095-.034l.013-.006.009-.005c.044-.023.097-.052.137-.035.026.038.06.047.091.057a.16.16 0 0 1 .067.032c-.084.084-.181.092-.28.1a.598.598 0 0 0-.196.04.428.428 0 0 0-.04.003Zm-3.427-.548c0 .023.023.047.023.047.542-.612 1.034-1.134 1.731-1.567.019-.007.012.002.003.015-.014.02-.033.046.02.032.231-.052.335-.25.436-.443.026-.05.052-.099.08-.145.105-.172.256-.282.407-.394.11-.08.22-.16.313-.265 0 .024 0 .047-.023.07.023.024.047.024.07.024a.37.37 0 0 1 .128-.056c.055-.016.106-.03.143-.08-.178-.07-.407-.094-.585-.024-.473.226-.875.589-1.259.998-.232.245-.473.475-.767.635a6.918 6.918 0 0 1-.72 1.153Zm1.89-1.45a.18.18 0 0 1-.035.05.151.151 0 0 0-.03.04.181.181 0 0 1-.09.09c-.022 0-.046 0-.046-.024.024-.09.09-.178.179-.202.023.004.023.028.023.047Zm.991 3.46a.289.289 0 0 0 .054-.065c.02-.047-.1-.035-.12-.024a.256.256 0 0 0-.042.046l-.004.005a.644.644 0 0 1-.054.053l-.039.036a2.78 2.78 0 0 1-.166.16c-.039.035.085.05.112.027a.81.81 0 0 0 .085-.077.163.163 0 0 0 .028-.003l.004-.001h.003a.441.441 0 0 0 .158-.11l.012-.011c.016-.016-.004-.031-.03-.035Zm-.35-.253a.002.002 0 0 0-.001 0v.004a5.552 5.552 0 0 0-.071.05 2.11 2.11 0 0 1-.185.122 2.92 2.92 0 0 1-.188.094 5.488 5.488 0 0 0-.11.054s0-.004-.004-.004c-.008-.012-.024-.016-.039-.008a.999.999 0 0 0-.225.175.118.118 0 0 0-.03.032l-.036.035v.004a.726.726 0 0 0-.05.054.121.121 0 0 0-.01.012c-.006.007-.01.014-.02.02-.016.007-.055.007-.051-.016v-.004a.18.18 0 0 1-.039.02.145.145 0 0 1-.017.009.153.153 0 0 0-.018.01c-.004-.004-.011-.004-.015-.004s-.012 0-.016.004a1.787 1.787 0 0 1-.027.022.66.66 0 0 0-.054.048 1.513 1.513 0 0 0-.132.14s0 .004-.004.004c0 .002 0 .003-.002.004l-.002.004-.007.008a.021.021 0 0 0-.004.004c0 .002-.002.003-.004.003l-.004.004a.083.083 0 0 1-.015.024.03.03 0 0 1-.02.008c-.004-.004-.008-.008-.008-.012a.02.02 0 0 1-.004-.006l-.003-.006-.01-.017a.16.16 0 0 0-.01-.018v-.004a.014.014 0 0 0-.002-.006l-.002-.005.07-.082.004-.004a.164.164 0 0 0 .012-.014.162.162 0 0 1 .011-.013.411.411 0 0 1 .02-.024.398.398 0 0 0 .019-.023l.006-.01a.083.083 0 0 0 .006-.01 2.061 2.061 0 0 0 .07-.097v-.004c.003-.004.007-.008.007-.016a.315.315 0 0 0 .031-.046l.023-.047v-.004l.004-.004.002-.004.002-.004.012-.027.011-.027v-.004l.004-.016a.054.054 0 0 0 .004-.011.054.054 0 0 1 .004-.012v-.004a.113.113 0 0 0 .004-.018c0-.005.002-.011.004-.017 0-.004 0-.012-.004-.016a.65.65 0 0 1 .089-.12.013.013 0 0 0-.006.002l-.003.001a.007.007 0 0 1-.003 0 .299.299 0 0 0-.047.04.4.4 0 0 1-.038.035c-.023.019-.07-.012-.039-.036a.374.374 0 0 0 .05-.046s0-.004.005-.004l.045-.046a.551.551 0 0 1 .07-.067 1.095 1.095 0 0 0 .07-.055c.004-.004.008-.008.012-.008a.676.676 0 0 1 .05-.058s.004 0 .004-.004c.133-.129.32-.174.511-.22.12-.03.242-.06.353-.111a.38.38 0 0 1 .202-.006.471.471 0 0 0 .158.006c.066 0 .136 0 .202.047-.153.081-.3.175-.444.267a17.42 17.42 0 0 1-.126.08h-.002Zm.484-1.587c-.018.002-.03.003-.02.013.066.066.202.043.295-.008.066-.046.135-.046.224-.046.024 0 .024-.043.024-.067a.454.454 0 0 0 .178.024c.538-.113 1.057-.226 1.553-.476-.502-.387-1.12-.56-1.726-.729a29.937 29.937 0 0 1-.3-.085c.022 0 .044.007.066.015.044.014.089.03.136-.015a.375.375 0 0 0-.198-.068.418.418 0 0 1-.163-.045.105.105 0 0 1 .019.003c.023.004.053.01.07-.026a1.162 1.162 0 0 0-.354-.1 2.277 2.277 0 0 1-.184-.037.222.222 0 0 0 .182-.226c0-.023-.046-.023-.07-.023-.267.136-.449.386-.561.678.101.06.21.053.317.046a.857.857 0 0 1 .179 0c-.051.049-.125.062-.195.075a.994.994 0 0 0-.077.015c-.07.016-.135.067-.112.113a.079.079 0 0 0 .05.032.323.323 0 0 0-.14.081c.065.05.13.04.195.031.026-.003.052-.007.077-.007 0 .028.019.038.038.048.01.005.02.01.028.018a.405.405 0 0 0-.225.203.416.416 0 0 1-.13.154.581.581 0 0 0-.094.095v.07a4.122 4.122 0 0 1-.228.184c-.156.12-.307.237-.427.404.023 0 .023.024.023.047-.021.032-.052.055-.08.076-.034.025-.066.048-.079.084 0 .023 0 .047.024.047.142-.047.265-.126.385-.204.11-.07.217-.14.335-.182.097-.023.18-.067.262-.11.07-.036.138-.071.21-.093.057-.011.119-.028.18-.045.063-.016.125-.033.18-.044 0 .023 0 .046.024.046h.178c-.01.027-.045.03-.069.034Z" clip-rule="evenodd"/><path fill="#E1000F" d="M33 0H20.097s.023.004.12.055l.325.172c.167.086.327.195.432.363.047.066.114.202.07.292-.046.113-.07.297-.183.34-.136.07-.316.07-.476.046-.09 0-.179-.023-.273-.047.34.137.66.297.886.613.023.047.113.066.203.066.023 0 .023.047.023.067-.047.047-.09.07-.066.136h.066c.113-.047.09-.273.25-.203.113.067.16.227.09.34a2 2 0 0 1-.274.226.191.191 0 0 0 0 .16c.067.09.09.18.114.273.07.16.09.34.16.5.09.339.179.678.16 1.022 0 .179-.09.339-.024.522.047.18.16.316.25.476.09.137.179.227.25.363.136.226.385.453.272.726-.066.16-.316.136-.476.226-.136.113-.023.296.047.41.113.202-.136.339-.296.41.047.07.136.046.16.089.023.113.136.18.066.296-.09.137-.363.203-.226.41.09.16.031.336-.024.5-.066.202-.25.292-.41.339a.893.893 0 0 1-.428.023c-.047-.023-.09-.047-.137-.047-.386-.046-.772-.156-1.154-.156-.113.024-.227.043-.316.09a1.825 1.825 0 0 0-.273.242L19 9.344c-.016.02-.035.035-.051.054-.008.012-.02.024-.027.036-.008.007-.012.015-.02.023a2.395 2.395 0 0 0-.18.261.054.054 0 0 1-.01.016c-.005.012-.013.02-.02.031a2.246 2.246 0 0 0-.172.417c-.156.52-.086.964.023 1.073.032.032.75.254 1.249.476.234.106.397.184.534.27h12.67V0H33Z"/><path fill="gray" d="M20.863 4.375c.09.024.226.024.226.07-.047.18-.315.226-.451.41h-.07c-.067.046-.047.16-.113.16-.066-.024-.136 0-.203.023.09.09.203.16.339.136.023 0 .066.047.066.09 0 0 .023 0 .047-.024.023 0 .046 0 .046.024v.09c-.066.089-.183.046-.272.065a.984.984 0 0 0 .521 0c.136-.046 0-.272.09-.385-.047 0 0-.07-.047-.07.047-.047.09-.113.136-.137.047 0 .113-.023.136-.07 0-.047-.09-.066-.07-.113.137-.09.25-.226.203-.362-.024-.07-.203-.07-.315-.113-.113-.043-.25 0-.386.023-.112 0-.225.07-.338.09-.16.046-.296.136-.428.226.16-.067.315-.09.498-.137.136.004.249-.027.385.004Z"/></svg>