<svg xmlns="http://www.w3.org/2000/svg" fill="none" viewBox="0 0 33 12"><path fill="#fff" d="M0 .0005h33v12H0z"/><path fill="#000091" d="M10.6562 10.5502c.004 0 .008-.0058.008-.0058a.4864.4864 0 0 0 .0916-.0883c-.004 0-.008 0-.012-.0059a1.5413 1.5413 0 0 0-.0876.1ZM15.0694 9.0634l-.0697.06c.0399-.01.0697-.02.0697-.06Z"/><path fill="#000091" fill-rule="evenodd" d="M13.6426 10.5822c.1278-.1285.2557-.2649.3835-.4052h-.0039c.2402-.2727.4726-.5337.7515-.7714a2.4857 2.4857 0 0 1 .244-.1987c.0114-.0114.0172-.0285.0229-.0452.0059-.0174.0117-.0345.0236-.0444-.0552.021-.0992.0544-.1435.0879-.0458.0347-.0918.0695-.1509.0913-.0232 0-.0465-.0234-.0232-.0467a5.6238 5.6238 0 0 0 .2401-.1832h-.0155c-.0232 0-.0232-.0233-.0232-.0467-.2884-.0458-.5099.1514-.7081.328l-.0124.011c-.0309.0155-.06 0-.0829-.012-.0116-.0061-.0216-.0114-.0294-.0114-.1754.0588-.3267.1672-.479.2764-.1403.1005-.2814.2016-.4429.2651v-.0467c-.0549.0189-.1091.0436-.1635.0683-.08.0364-.1602.0729-.2433.0914-.1516.0352-.2922.0307-.4285.0263a3.9803 3.9803 0 0 0-.1331-.0029c-.2481.0246-.493.0777-.7377.1308l-.0796.0172a.0488.0488 0 0 1-.0117.0039c-.0038.001-.0077.002-.0116.0039a1.6903 1.6903 0 0 0-.4183.1715l-.0155.0078c-.0053.0071-.0107.0134-.0156.0193a.2141.2141 0 0 0-.0154.0196c-.0465.0546-.0891.1013-.1549.1364-.0973.0489-.1814.1243-.2641.1985a2.7858 2.7858 0 0 1-.1078.0937c-.0077.0078-.0232.0117-.0349.0117-.12.1168-.2401.2338-.364.3467-.0078.0078-.0427.0117-.0698.0078 0 0 .0039 0 .0039-.0039l.0116-.0234.0581-.0935a1.4244 1.4244 0 0 0 .0329-.0526c.0107-.0175.0213-.035.0329-.0526.031-.0467.0621-.0935.0969-.1363.0077-.0117.0077-.0234 0-.0312a.044.044 0 0 0-.031-.0117c.1123-.1091.244-.2026.3796-.2844v-.0039c-.0155.0039-.0387-.0078-.0271-.0234.0114-.0142.0206-.0306.0294-.046l.0093-.0163c.002-.0039.0029-.0068.0039-.0097.001-.003.0019-.0059.0039-.0098-.002-.0039-.0049-.0068-.0078-.0097a.0371.0371 0 0 1-.0077-.0098l-.0235.0155a.7208.7208 0 0 0-.0811.0586c-.0171.0147-.0331.0349-.0494.0556-.0356.0449-.0731.0924-.1288.0924-.0039 0-.0232 0-.0348-.0039-.0117 0-.0194-.0039-.0233-.0078 0-.0019 0-.0029.0005-.0034s.0014-.0005.0034-.0005c0 0 .0039-.0039.0039-.0078 0 0 0-.0039.0038-.0039a.113.113 0 0 1 .0058-.0097.0825.0825 0 0 0 .0059-.0097.0725.0725 0 0 1 .0058-.0098c.0019-.0029.0038-.0058.0058-.0097a.0196.0196 0 0 0 .0038-.0078c.001-.0029.002-.0058.0039-.0078l.0044-.008c.0038-.0069.0084-.015.0111-.0232.0019-.0039.0039-.0068.0058-.0097a.0777.0777 0 0 0 .0058-.0097.215.215 0 0 0 .0155-.0254c.0049-.0087.0097-.0175.0155-.0253.0039-.0078.0078-.0156.0155-.0234.0039-.0078.0078-.0146.0116-.0214.0039-.0068.0078-.0136.0117-.0214.0116-.0195 0-.0351-.0155-.039a.5237.5237 0 0 1 .1549-.1364h-.0077c.0534-.0268.1084-.0583.1631-.0896a5.455 5.455 0 0 1 .0964-.0545.1511.1511 0 0 1 .0387-.0312 1.3932 1.3932 0 0 0-.3563.1792s-.031.0117-.0388.0195c0 0-.0232.0078-.0542-.0195-.0039-.0039-.0039-.0077-.0039-.0155.0135-.0271.0412-.0451.0713-.0644a.38.38 0 0 0 .0643-.0486c.0232 0 .0426 0 .0426.0234.4461-.3498.9962-.4308 1.5481-.512.3395-.05.6797-.1.9968-.2127a3.6147 3.6147 0 0 1 .1007-.0682c.0339-.0224.0678-.0448.1007-.0682.0565-.0235.1072-.0638.1608-.1064.0529-.0422.1088-.0866.1762-.1196.1782-.1363.3138-.2922.3835-.522 0-.0234-.0232-.0468-.0232-.0468a3.563 3.563 0 0 1-.9917.748c-.3435.1813-.7115.2082-1.0759.2348-.1369.01-.2733.0199-.4076.038.0232-.0468.0697-.0468.1123-.0468 0-.0553.0265-.079.0605-.1096.0091-.0082.0188-.0169.0286-.0267h.0659c.0116 0 .0174-.0117.0232-.0234s.0116-.0234.0232-.0234c.0465 0 .1124-.0234.0891-.0234-.0355-.0456-.0871-.0275-.1441-.0076-.0548.0192-.1145.0401-.1696.0076.0205-.0224.0266-.0494.0322-.074.0061-.0265.0115-.0502.0336-.0623h.0891c0-.0468.0465-.0896.0465-.0896.202-.1215.3971-.2275.5885-.3316.1279-.0695.2543-.1382.3799-.21-.0254 0-.048.0105-.0698.0206-.0348.0161-.068.0315-.1084.0028.0232 0 .0232-.0166.0232-.0331 0-.0166 0-.0331.0233-.0331.1453-.0389.2746-.1018.4067-.166.0933-.0454.1879-.0914.2905-.1301-.0304 0-.0586.0081-.0861.0161-.0529.0154-.1031.03-.1618-.0161.0154-.0078.0278-.0177.0401-.0274.0247-.0197.0489-.0389.0955-.0389V7.933c0-.0234.0232-.0234.0465-.0234-.0233 0-.0465-.0234-.0465-.0234.0123-.0247.0365-.0298.0635-.0355.024-.005.0502-.0105.0721-.0307-.0233 0-.0659 0-.0659-.0234.0659-.0896.1782-.113.2905-.1363-.0116-.0234-.0339-.0234-.0532-.0234-.0194 0-.0359 0-.0359-.0234s.0233-.0234.0465-.0234h-.0465c-.0364-.0183-.03-.051-.0255-.0737.0012-.0062.0023-.0117.0023-.0159.091-.1072.1209-.2337.1507-.3595.0145-.0616.0291-.1231.0507-.182-.0232 0-.0465 0-.0465-.0234-.2178.2417-.563.3333-.8909.4204l-.031.0082h-.1123c-.1123.0467-.2711.0467-.3835-.0234-.0534-.028-.0915-.063-.1326-.101a1.1326 1.1326 0 0 0-.092-.0782c-.1821-.113-.3603-.2026-.5617-.2728-.5617-.1792-1.1466-.2727-1.7315-.2493.1634-.0899.3368-.1256.5125-.1618.091-.0187.1827-.0376.2738-.0642a15.209 15.209 0 0 0 .1712-.0518c.3213-.0985.633-.194.9754-.1742-.0448-.0159-.1022-.0101-.155-.0048-.0248.0025-.0486.0049-.0696.0049-.259-.0193-.5205.0383-.7934.0985a15.2287 15.2287 0 0 1-.175.0378c-.1069.0223-.2085.0542-.3103.0862-.1122.0352-.2245.0706-.3444.093-.052.018-.0936.0485-.1343.0782-.0654.0478-.128.0936-.2259.0816v-.0701c.2247-.2728.4958-.5416.8561-.565.3482-.0567.6765-.0163 1.019.0258.0576.0071.1155.0142.174.021.2808.0226.5435.0852.8266.1527l.0295.007c.0619 0 .0968.0546.1305.1074.0275.043.0542.0847.0941.0952.0552.019.1103.0226.1655.0261.0804.0052.1608.0103.2412.0635a.2722.2722 0 0 0-.0052-.0462c-.0051-.0298-.0102-.0591.0052-.0902.05-.0502.1073-.0367.1637-.0234.0441.0103.0877.0206.1269 0 .1228-.0762.0076-.1932-.1077-.3103-.0556-.0565-.1113-.113-.1403-.165 0-.0233.0233-.0467.0233-.0467.0509.0456.0983.0928.1452.1396.1176.117.2327.2316.3932.3123.1123.0468.3835.113.337-.0233-.0796-.1766-.2155-.3298-.3527-.4844a5.3747 5.3747 0 0 1-.1663-.1936v-.0896c-.0354 0-.0438-.0135-.0544-.0302-.0033-.0053-.0068-.0109-.0115-.0165v-.0896c-.0568-.0298-.0695-.077-.0823-.1245-.0073-.027-.0146-.0541-.03-.0781-.0389-.063-.0416-.1404-.0445-.2202-.0023-.0635-.0047-.1285-.0253-.189-.0464-.1363-.0658-.2492-.089-.3856a15.6637 15.6637 0 0 0-.0802-.4035c-.0479-.2305-.0941-.4522-.1213-.6835-.0358-.3306.1311-.6102.3018-.896.0506-.0847.1015-.17.1476-.2573.1588-.2727.337-.5415.6313-.7246.0643-.266.239-.4875.4129-.708l.0132-.0167c.1717-.214.4583-.3447.6695-.441l.0239-.011c.3138-.1402.5965-.2298.6004-.2298H0v11.996h11.0396c.2952-.214.5887-.3491.9379-.5098.1594-.0733.3304-.152.5185-.246.0399-.0201.0872-.0434.1397-.0692.3153-.1551.8177-.4023 1.0069-.5893Zm-3.503-1.6184c-.0438.0044-.0902.009-.0727-.0262.0163-.0788.097-.1024.1759-.1255.0337-.01.0672-.0197.095-.0337l.0127-.0065.0093-.005c.0437-.0232.0972-.0516.1367-.035.0266.0378.0596.0475.0916.057.0239.0071.0472.014.067.0322-.0837.084-.1814.0923-.2804.1007-.0658.0056-.1322.0113-.1956.0392a.4277.4277 0 0 0-.0395.0028Zm-3.427-.5479c0 .0234.0233.0467.0233.0467C7.2782 7.851 7.77 7.329 8.4673 6.8964c.0187-.0078.0118.002.0025.015-.0137.0193-.0325.0458.0208.0318.2308-.0526.3345-.2504.4353-.4428.0261-.0497.052-.099.0799-.1455.1057-.172.256-.2823.4074-.3934.1091-.08.219-.1606.313-.265 0 .0233 0 .0467-.0232.07.0233.0235.0465.0235.0697.0235.0409-.0309.0855-.0436.1282-.0559.0546-.0156.1061-.0303.143-.0805-.1782-.0701-.4068-.0935-.585-.0234-.4725.226-.8753.5883-1.2588.9974-.2324.2455-.4726.4753-.767.635-.2014.4052-.426.7676-.7205 1.1533Zm1.891-1.449a.1804.1804 0 0 1-.0358.0492.1513.1513 0 0 0-.0299.0401c-.0232.0466-.0464.066-.089.0893-.0232 0-.0464 0-.0464-.0233.0232-.0893.089-.1786.178-.202.0232.004.0232.0273.0232.0467Zm.9906 3.46c.0194-.0195.0426-.0429.0542-.0663.0193-.0467-.1006-.035-.12-.0233a.2555.2555 0 0 0-.0422.0453l-.0042.0053a.6445.6445 0 0 1-.0542.0532c-.013.0119-.0262.0238-.0387.0364-.0542.0546-.1083.1091-.1664.1597-.0387.0351.0852.0507.1122.0273a.8096.8096 0 0 0 .0852-.0779.1633.1633 0 0 0 .0275-.0029l.0047-.0007.0026-.0003c.0642-.0215.1119-.0662.1583-.1096l.012-.0112c.0155-.0156-.0039-.0311-.031-.035Zm-.3502-.2534a.002.002 0 0 0-.001.0004c-.0004.0005-.0004.0015-.0004.0034a5.5518 5.5518 0 0 0-.0707.0495c-.0605.0428-.1207.0854-.185.1219a2.9194 2.9194 0 0 1-.188.0947 5.4878 5.4878 0 0 0-.1103.0534s0-.0039-.0038-.0039c-.0078-.0117-.0233-.0156-.0388-.0078-.0852.0468-.1588.1091-.2246.1753a.1184.1184 0 0 0-.031.0312l-.0349.0351v.0039a.726.726 0 0 0-.0503.0545.1213.1213 0 0 0-.0101.012c-.0056.0073-.0108.0141-.021.0192-.0154.0078-.0541.0078-.0503-.0156v-.0039a.1805.1805 0 0 1-.0387.0195c-.0058.0039-.0116.0068-.0175.0097a.153.153 0 0 0-.0174.0098c-.0038-.0039-.0116-.0039-.0155-.0039-.0038 0-.0116 0-.0155.0039-.009.0077-.018.0151-.027.0225a.66.66 0 0 0-.0543.0476 1.5126 1.5126 0 0 0-.1317.1402s0 .0039-.0039.0039c0 .002-.001.003-.002.0039-.0009.001-.0019.002-.0019.0039l-.0077.0078a.0214.0214 0 0 0-.0032.0043c-.0012.002-.0022.0035-.0046.0035l-.0038.0039c-.0039.0078-.0078.0156-.0155.0234a.0295.0295 0 0 1-.0194.0078c-.0039-.0039-.0077-.0078-.0077-.0117a.0206.0206 0 0 1-.004-.0059c-.0009-.0019-.0018-.0039-.0038-.0058-.0039-.0058-.0068-.0117-.0097-.0175a.1601.1601 0 0 0-.0096-.0176v-.0039a.0137.0137 0 0 0-.002-.0058c-.001-.002-.002-.0039-.002-.0058l.0698-.0819.0039-.0039a.1641.1641 0 0 0 .0116-.0136.1623.1623 0 0 1 .0116-.0136.4114.4114 0 0 1 .0194-.0234c.0068-.0078.0135-.0156.0193-.0234.002-.0039.004-.0068.0059-.0097a.0833.0833 0 0 0 .0058-.0098 2.061 2.061 0 0 0 .0697-.0974v-.0039c.0039-.0039.0077-.0078.0077-.0155.0117-.0156.0233-.0312.031-.0468l.0233-.0468v-.0039l.0038-.0038c0-.002.001-.003.002-.0039.001-.001.002-.002.002-.0039.0038-.0098.0077-.0185.0115-.0273.0039-.0088.0078-.0175.0117-.0273v-.0039l.0038-.0156c.002-.0039.003-.0078.004-.0117a.0543.0543 0 0 1 .0038-.0116v-.0039a.1133.1133 0 0 0 .0038-.0176c.001-.0058.002-.0117.004-.0175 0-.0039 0-.0117-.004-.0156.0233-.0428.0543-.0818.0892-.1208a.0134.0134 0 0 0-.0059.002l-.0033.0015a.0071.0071 0 0 1-.0025.0004.2987.2987 0 0 0-.0472.04.3997.3997 0 0 1-.038.0341c-.0232.0194-.0697-.0117-.0387-.0351.0193-.0156.0348-.0312.0503-.0467 0 0 0-.004.0039-.004.0154-.0139.0303-.0298.0452-.0457.0226-.0241.0454-.0485.071-.0672a1.0952 1.0952 0 0 0 .0697-.0546c.0039-.0039.0078-.0078.0116-.0078a.6765.6765 0 0 1 .0504-.0584s.0039 0 .0039-.0039c.133-.129.32-.1745.5107-.221.1203-.0293.2422-.059.353-.1102.0627-.026.1325-.0158.2015-.0056.0548.008.1091.016.1588.0056.0659 0 .1356 0 .2014.0468-.1531.0815-.2993.1748-.444.2671-.0418.0267-.0836.0534-.1254.0796l-.0024.0001Zm.484-1.588c-.018.0022-.0298.0035-.0198.0136.0659.0663.2015.0429.2944-.0078.0659-.0467.1356-.0467.2247-.0467.0232 0 .0232-.0429.0232-.0663.0659.0234.1124.0234.1782.0234.5384-.113 1.0575-.226 1.5533-.4753-.5017-.3876-1.1202-.5603-1.726-.7294a29.9372 29.9372 0 0 1-.2999-.0849c.0219 0 .0437.0073.0656.0146.0443.0148.0892.0297.1359-.0146-.0615-.049-.1299-.0584-.1977-.0677-.056-.0076-.1117-.0153-.1626-.0453a.1049.1049 0 0 1 .0185.0026c.0232.0045.0527.0101.0706-.026-.1176-.0591-.2353-.0792-.354-.0995-.0612-.0104-.1226-.021-.1844-.0368.1123-.0234.182-.113.182-.226 0-.0233-.0464-.0233-.0697-.0233-.2672.1363-.4493.3857-.5616.6779.1013.0596.2104.0527.3174.046.0608-.004.1208-.0077.1784.0007-.0508.0483-.1242.0614-.1948.074a.9939.9939 0 0 0-.0764.0156c-.0697.0156-.1355.0663-.1123.113a.079.079 0 0 0 .0504.0312c-.0504.0156-.0969.039-.1395.0818.0638.0502.1295.0405.1944.031.0258-.0038.0514-.0076.0768-.0076 0 .0283.0185.0379.0379.0479.0099.0051.02.0104.028.0183-.1124.0429-.2015.1364-.2248.2026-.0277.0675-.079.1114-.1298.1548-.0343.0293-.0683.0585-.0948.0946v.07c-.0748.0664-.1518.1257-.2276.184-.1558.1201-.3072.2367-.427.4044.0232 0 .0232.0234.0232.0467-.0214.0324-.052.0548-.0808.076-.0339.0248-.0655.0481-.078.0838 0 .0234 0 .0467.0232.0467.1422-.047.2651-.126.3857-.2036.1094-.0703.2168-.1394.3348-.182.0964-.0233.1803-.067.2622-.1096.0695-.0362.1375-.0716.2104-.093.0561-.0117.1181-.0283.18-.0449.062-.0165.124-.033.1802-.0448 0 .0234 0 .0468.0232.0468h.1782c-.011.0265-.0456.0305-.0693.0332Z" clip-rule="evenodd"/><path fill="#E1000F" d="M33.0002.0005H20.0968s.0234.0039.1209.0546c.1053.0546.2418.1287.3238.1717.1677.0858.3276.195.4329.3628.0468.0663.1132.2028.0702.2926-.0468.113-.0702.2964-.1833.3393-.1365.0703-.3159.0703-.4759.0469-.0897 0-.1794-.0234-.273-.0469.3393.1366.6592.2965.8854.6125.0234.0468.1132.0664.2029.0664.0234 0 .0234.0468.0234.0663-.0468.0468-.0897.0702-.0663.1365h.0663c.1131-.0468.0897-.273.2496-.2028.1131.0663.1599.2262.0897.3394-.0897.0897-.1794.16-.273.2262a.191.191 0 0 0 0 .16c.0663.0897.0897.1794.1131.273.0702.16.0897.3395.1599.4994.0898.3394.1795.6788.16 1.0221 0 .1795-.0898.3394-.0234.5228.0468.1794.1599.316.2496.476.0897.1364.1794.2262.2496.3627.1366.2263.3862.4526.2731.7256-.0663.16-.316.1366-.4759.2263-.1365.1131-.0234.2965.0468.4096.1131.2029-.1365.3394-.2964.4096.0468.0703.1365.0469.1599.0898.0234.1131.1365.1794.0663.2965-.0897.1365-.3628.2028-.2262.4096.0897.16.0312.3355-.0234.4993-.0663.2029-.2497.2926-.4096.3394-.1365.0469-.2965.0469-.4291.0235-.0468-.0235-.0897-.0469-.1365-.0469-.3862-.0468-.7723-.156-1.1546-.156-.1131.0234-.2262.0429-.316.0897-.1014.0741-.195.156-.273.2419l-.0039.0039c-.0156.0195-.0351.0351-.0507.0546-.0078.0117-.0195.0234-.0273.0351-.0078.0078-.0117.0156-.0195.0234-.0663.082-.1248.1717-.1794.2614a.0538.0538 0 0 1-.0117.0156c-.0039.0117-.0117.0195-.0196.0312-.0741.1366-.1287.277-.1716.4174-.156.5189-.0858.9636.0234 1.0729.0312.0312.749.2535 1.2482.4759.2341.1053.3979.1834.5344.2692h12.6694v-12h.0039Z"/><path fill="gray" d="M20.8631 4.3752c.0895.0233.2257.0233.2257.07-.0467.1793-.3152.226-.4513.4092h-.0701c-.0661.0467-.0466.1597-.1128.1597-.0661-.0234-.1361 0-.2023.0234.0895.0896.2023.1597.3385.1364.0233 0 .0661.0467.0661.0896 0 0 .0234 0 .0467-.0234.0234 0 .0467 0 .0467.0234v.0896c-.0661.0896-.1829.0467-.2723.0662.1828.0468.3618.0468.5213 0 .1362-.0467 0-.2727.0895-.3857-.0467 0 0-.0701-.0467-.0701.0467-.0468.0895-.113.1361-.1364.0467 0 .1129-.0234.1362-.0701 0-.0468-.0895-.0663-.07-.113.1362-.0896.249-.226.2023-.3623-.0234-.0702-.2023-.0702-.3151-.113-.1129-.0429-.249 0-.3852.0233-.1128 0-.2256.0702-.3385.0897-.1595.0467-.2956.1363-.4279.226.1595-.0663.3151-.0897.498-.1364.1361.0039.249-.0273.3851.0039Z"/></svg>